<?xml version="1.0" encoding="UTF-8"?>
<svg width="468px" height="413px" viewBox="0 0 468 413" version="1.1" xmlns="http://www.w3.org/2000/svg" xmlns:xlink="http://www.w3.org/1999/xlink">
    <!-- Generator: Sketch 50.2 (55047) - http://www.bohemiancoding.com/sketch -->
    <title>logo</title>
    <desc>Created with Sketch.</desc>
    <defs></defs>
    <g id="join_q" stroke="none" stroke-width="1" fill="none" fill-rule="evenodd">
        <g id="Homepage" transform="translate(-1128.000000, -237.000000)">
            <g id="logo" transform="translate(1128.000000, 237.000000)">
                <path d="M116.381547,377.735223 C117.367617,379.13648 117.860644,380.719357 117.860644,382.483902 L117.860644,383.184527 C117.808746,383.755409 117.70495,384.352231 117.549255,384.975012 C116.615084,388.815493 113.345535,391.410373 107.740509,392.759731 C104.574708,393.538207 99.6184864,393.953388 92.8716963,394.005286 C90.7438625,394.057184 89.3166783,394.109082 88.5901009,394.16098 C77.9509319,394.939456 65.5474039,397.197002 51.3791446,400.933686 C45.8779158,402.386841 41.622312,403.47669 38.6122057,404.203268 C37.6780347,404.410861 35.8875673,404.929837 33.2407496,405.760211 C25.4559918,408.147537 19.5137158,409.341182 15.4137434,409.341182 C14.8428612,409.341182 14.3238851,409.315233 13.8567996,409.263335 C6.12394019,408.588656 2.25756848,403.710281 2.25756848,394.628063 L2.25756848,394.472369 C2.25756848,390.735685 1.89428523,384.637716 1.16770783,376.17828 C0.441130437,368.497319 0.0518983854,363.04807 0,359.83037 L0,352.201346 C0,339.538139 0.311385642,326.823226 0.934166266,314.056223 C0.986064652,313.433442 1.01201346,312.473337 1.01201346,311.175877 C1.01201346,309.826519 0.986064652,308.165796 0.934166266,306.193657 L0.934166266,304.013936 C0.934166266,295.554499 1.2196031,288.107192 1.79048534,281.671792 C3.08794498,266.932651 5.86446695,257.617031 10.1201346,253.724652 C12.0922732,251.908208 14.3238703,251 16.8149928,251 C17.1782815,251 17.5156159,251.025949 17.8270062,251.077847 C18.1902949,251.077847 18.5535782,251.129745 18.9168669,251.233542 C22.6016523,251.544932 25.3781742,253.024014 27.2465161,255.670831 C28.6996709,257.746767 29.4262374,260.93847 29.4262374,265.246036 C29.4262374,266.439698 29.3743398,267.71119 29.270543,269.060548 C28.8553559,273.471911 27.8174038,278.817364 26.1566555,285.097069 C25.3781797,288.159073 24.8851524,290.234978 24.6775589,291.324844 C24.0028799,295.061528 23.457955,299.317131 23.0427679,304.091783 C22.4199873,311.201862 22.1086016,319.453581 22.1086016,328.847189 C22.1086016,338.240797 22.4199873,348.776011 23.0427679,360.453148 C23.5098534,368.912584 23.8471878,375.321939 24.0547814,379.681403 C28.5699409,379.058623 33.8115992,378.4618 39.7799135,377.890918 C48.3950455,377.060544 56.6986626,375.763103 64.6910139,373.998558 C73.2542475,372.02642 81.7914039,371.040365 90.3027391,371.040365 C93.5723373,371.040365 96.8159378,371.196058 100.033638,371.507448 C108.493074,372.285924 113.942323,374.361828 116.381547,377.735223 Z M152.866482,372.130226 C156.187978,372.130226 158.912603,370.96253 161.040436,368.627102 C163.012575,366.499269 164.154322,363.852491 164.465713,360.686689 C164.517611,360.167705 164.54356,359.648729 164.54356,359.129745 C164.54356,356.638623 163.920789,354.432975 162.675227,352.512734 C161.014479,349.917815 158.575291,348.412784 155.357592,347.997597 C154.942404,347.945699 154.553172,347.91975 154.189884,347.91975 C152.113948,347.91975 150.505123,348.776061 149.363358,350.488707 C148.169695,352.253252 147.572873,354.69244 147.572873,357.806343 C147.572873,364.760727 149.337391,369.535307 152.866482,372.130226 Z M201.546924,365.668909 C205.335506,362.866396 208.189874,361.465161 210.110114,361.465161 C212.030355,361.465161 212.99046,362.918294 212.99046,365.824604 C211.744899,374.595431 206.840575,383.807256 198.277342,393.460356 C189.921702,402.802065 181.436443,408.97788 172.821311,411.987987 C169.707408,412.662666 166.6195,413 163.557495,413 C148.351269,413 134.338915,404.384997 121.520013,387.154733 C117.160549,381.290216 114.98085,373.246087 114.98085,363.022105 C114.98085,358.714539 115.370082,353.991857 116.148557,348.853916 C117.549814,339.616004 124.919274,333.518035 138.257159,330.559827 C140.073603,330.14464 141.86407,329.937049 143.628615,329.937049 C148.455165,329.937049 152.970257,331.493978 157.174026,334.607881 C161.948677,338.136971 166.02264,343.404578 169.396035,350.41086 C170.278307,353.576662 170.719437,356.534825 170.719437,359.28544 C170.719437,367.433486 166.904963,373.998533 159.2759,378.980778 C158.030339,379.811153 156.369615,380.589617 154.29368,381.316194 C151.958253,382.146568 150.557017,382.665544 150.089932,382.873138 C149.000066,383.44402 148.455141,384.170587 148.455141,385.052859 L148.455141,385.208554 C148.558938,386.29842 149.467146,387.777501 151.179792,389.645843 C154.812679,393.590121 158.990437,395.56223 163.71319,395.56223 C165.062548,395.56223 166.463783,395.406537 167.916938,395.095147 C173.989049,393.745789 180.061069,389.490185 186.13318,382.328208 C194.281227,372.830803 199.41909,367.277759 201.546924,365.668909 Z M292.851848,402.957713 L292.851848,403.58049 C292.48856,409.341211 289.763935,412.221528 284.677893,412.221528 C278.917173,412.221528 273.234385,409.730443 267.629359,404.748198 C262.491419,398.779884 258.495303,387.985181 255.640892,372.363767 C255.173806,369.872645 254.914318,368.445461 254.86242,368.082172 C253.616859,370.417599 251.592852,375.218128 248.790339,382.483902 C245.001757,392.344595 242.017645,399.221028 239.837913,403.113407 C236.101229,409.704502 232.416499,413 228.783612,413 C224.99503,413 221.777378,411.546867 219.13056,408.640557 C215.186283,404.281093 213.214174,398.831844 213.214174,392.292648 C213.214174,391.25468 213.266072,390.190779 213.369868,389.100913 C213.992649,382.250326 214.304035,371.896754 214.304035,358.039885 C214.355933,353.161436 214.381882,349.295065 214.381882,346.440654 C214.589475,331.390122 215.393888,317.377768 216.795145,304.403172 C219.441962,280.426118 223.541873,268.43777 229.095001,268.43777 C230.08107,268.43777 231.041176,268.775105 231.975347,269.449784 C235.71203,271.16243 237.632242,277.000911 237.736039,286.965401 L237.736039,287.510332 C237.736039,294.360918 236.801882,304.766389 234.93354,318.727054 C234.258861,323.864994 233.895577,327.108595 233.843679,328.457953 C233.220898,338.889528 232.909513,348.412739 232.909513,357.027871 C232.909513,360.868352 232.96141,364.501184 233.065207,367.926478 C236.023415,364.916371 238.877784,359.31143 241.628398,351.111485 C243.548638,345.195069 245.313157,340.939465 246.922007,338.344546 C249.568824,333.933183 253.201657,330.767429 257.820613,328.847189 C258.858581,328.380103 259.870584,328.146564 260.856654,328.146564 C265.371813,328.146564 269.030594,332.505963 271.833107,341.224892 C273.857144,347.556495 275.647612,357.079706 277.204563,369.79481 L277.671646,373.531475 C281.200737,387.388344 286.10506,397.067248 292.384765,402.568477 L292.851848,402.957713 Z M326.793774,372.130226 C330.115271,372.130226 332.839895,370.96253 334.967729,368.627102 C336.939868,366.499269 338.081615,363.852491 338.393005,360.686689 C338.444904,360.167705 338.470853,359.648729 338.470853,359.129745 C338.470853,356.638623 337.848081,354.432975 336.60252,352.512734 C334.941772,349.917815 332.502584,348.412784 329.284884,347.997597 C328.869697,347.945699 328.480465,347.91975 328.117176,347.91975 C326.041241,347.91975 324.432415,348.776061 323.290651,350.488707 C322.096988,352.253252 321.500165,354.69244 321.500165,357.806343 C321.500165,364.760727 323.264684,369.535307 326.793774,372.130226 Z M380.788584,365.668909 C384.577167,362.866396 387.431535,361.465161 389.351775,361.465161 C391.272015,361.465161 392.232121,362.918294 392.232121,365.824604 C390.98656,374.595431 386.082236,383.807256 377.519003,393.460356 C369.163362,402.802065 360.678104,408.97788 352.062972,411.987987 C348.949069,412.662666 345.861161,413 342.799156,413 C327.592929,413 313.580576,404.384997 300.761674,387.154733 C296.40221,381.290216 294.22251,373.246087 294.22251,363.022105 C294.22251,358.714539 294.611743,353.991857 295.390218,348.853916 C296.791475,339.616004 304.160935,333.518035 317.49882,330.559827 C319.315263,330.14464 321.105731,329.937049 322.870276,329.937049 C327.696826,329.937049 332.211918,331.493978 336.415687,334.607881 C341.190338,338.136971 345.2643,343.404578 348.637695,350.41086 C349.519968,353.576662 349.961098,356.534825 349.961098,359.28544 C349.961098,367.433486 346.146624,373.998533 338.517561,378.980778 C337.272,379.811153 335.611276,380.589617 333.535341,381.316194 C331.199913,382.146568 329.798678,382.665544 329.331593,382.873138 C328.241727,383.44402 327.696802,384.170587 327.696802,385.052859 L327.696802,385.208554 C327.800598,386.29842 328.708807,387.777501 330.421453,389.645843 C334.05434,393.590121 338.232098,395.56223 342.954851,395.56223 C344.304209,395.56223 345.705444,395.406537 347.158599,395.095147 C353.23071,393.745789 359.30273,389.490185 365.374841,382.328208 C373.522888,372.830803 378.660751,367.277759 380.788584,365.668909 Z M454.510424,327.601634 C457.416734,327.601634 460.374897,328.717432 463.385004,330.949063 C466.08372,332.9731 467.433057,335.126851 467.433057,337.41038 C467.433057,337.981262 467.329262,338.578084 467.121669,339.200865 C456.430601,344.650195 447.504213,352.097502 440.342236,361.543008 C432.453681,371.870787 427.004432,383.93698 423.994326,397.741951 C421.814594,407.862136 418.674789,412.922153 414.574816,412.922153 C412.810271,412.922153 410.864111,411.962047 408.736277,410.041807 C403.49454,405.267155 399.394629,396.05533 396.436421,382.406055 C394.049095,371.507394 392.85545,360.894333 392.85545,350.566555 C393.84152,346.362785 395.424397,343.482468 397.604129,341.925517 C398.642097,341.250838 399.705998,340.913503 400.795864,340.913503 C401.989527,340.913503 403.183172,341.276786 404.376834,342.003364 C410.085657,345.532454 413.355206,353.758225 414.18558,366.680923 C416.313414,358.844266 421.217738,350.670393 428.898699,342.159058 C437.669526,332.45406 446.154785,327.601634 454.35473,327.601634 L454.510424,327.601634 Z" id="Leher" fill="#FFFFFF"></path>
                <g transform="translate(135.000000, 0.000000)">
                    <path d="M137.114267,0.540806058 L15.37678,0.540806058 C6.8854423,0.540806058 0,7.47740263 0,16.0318253 L0,42.9626133 L0,138.673741 C0,147.228163 6.8854423,154.16476 15.37678,154.16476 L26.2703248,154.16476 L42.9291667,154.16476 L42.9291667,187.729972 L76.2441961,154.16476 L137.114267,154.16476 C145.605604,154.16476 152.491047,147.228163 152.491047,138.673741 L152.491047,16.0318253 C152.491047,7.47740263 145.605604,0.540806058 137.114267,0.540806058" id="Fill-105" fill="#ACD433"></path>
                    <path d="M176.145839,33.5408061 L164.376351,33.5408061 L44.6163719,33.5408061 C35.4402062,33.5408061 28,41.0336139 28,50.2779525 L28,182.78727 C28,192.028935 35.4402062,199.524417 44.6163719,199.524417 L110.381105,199.524417 L145.952351,220.5 L146.379705,199.524417 L176.145839,199.524417 C185.322005,199.524417 192.762211,192.028935 192.762211,182.78727 L192.762211,153.690467 L192.762211,50.2779525 C192.762211,41.0336139 185.322005,33.5408061 176.145839,33.5408061" id="Fill-107" fill="#FFFFFF"></path>
                    <path d="M143.445174,136.304688 C143.939968,137.007816 144.187362,137.802079 144.187362,138.6875 L144.187362,139.039062 C144.16132,139.325522 144.109237,139.624998 144.031112,139.9375 C143.562359,141.864593 141.921751,143.166663 139.109237,143.84375 C137.520687,144.234377 135.033733,144.442708 131.648299,144.46875 C130.580585,144.494792 129.864447,144.520833 129.499862,144.546875 C124.161293,144.937502 117.937397,146.070303 110.827987,147.945312 C108.067556,148.674483 105.932161,149.221352 104.421737,149.585938 C103.952984,149.690105 103.054556,149.950519 101.726424,150.367188 C97.8201546,151.56511 94.8384136,152.164062 92.7811116,152.164062 C92.4946518,152.164062 92.2342378,152.151042 91.9998616,152.125 C88.1196339,151.786457 86.1795491,149.338564 86.1795491,144.78125 L86.1795491,144.703125 C86.1795491,142.828116 85.9972593,139.76825 85.6326741,135.523438 C85.2680889,131.669252 85.0727784,128.934904 85.0467366,127.320312 L85.0467366,123.492188 C85.0467366,117.137989 85.202985,110.757845 85.5154866,104.351562 C85.5415284,104.039061 85.5545491,103.557295 85.5545491,102.90625 C85.5545491,102.229163 85.5415284,101.395838 85.5154866,100.40625 L85.5154866,99.3125 C85.5154866,95.0676871 85.6587143,91.3307453 85.9451741,88.1015625 C86.596219,80.7056922 87.9894343,76.0312598 90.1248616,74.078125 C91.1144499,73.1666621 92.2342303,72.7109375 93.4842366,72.7109375 C93.6665292,72.7109375 93.8357983,72.7239582 93.9920491,72.75 C94.1743417,72.75 94.3566315,72.7760414 94.5389241,72.828125 C96.3878917,72.9843758 97.7811069,73.7265559 98.7186116,75.0546875 C99.4477819,76.0963594 99.8123616,77.6979059 99.8123616,79.859375 C99.8123616,80.4583363 99.7863202,81.0963508 99.7342366,81.7734375 C99.5259022,83.9869902 99.0050741,86.6692551 98.1717366,89.8203125 C97.7811096,91.3567785 97.5337163,92.3984348 97.4295491,92.9453125 C97.0910057,94.8203219 96.817571,96.9557172 96.6092366,99.3515625 C96.296735,102.919289 96.1404866,107.059872 96.1404866,111.773438 C96.1404866,116.487003 96.296735,121.773408 96.6092366,127.632812 C96.8436128,131.877625 97.0128819,135.093739 97.1170491,137.28125 C99.3826854,136.968748 102.012867,136.669272 105.007674,136.382812 C109.330612,135.966144 113.497237,135.315109 117.507674,134.429688 C121.804571,133.440099 126.088382,132.945312 130.359237,132.945312 C131.99987,132.945312 133.627458,133.023437 135.242049,133.179688 C139.486862,133.570314 142.22121,134.611971 143.445174,136.304688 Z" id="L" fill="#3495AF"></path>
                </g>
            </g>
        </g>
    </g>
</svg>