<svg xmlns="http://www.w3.org/2000/svg" width="131" height="144" viewBox="0 0 131 144">
    <g fill="none" fill-rule="nonzero">
        <path fill="#E2E4E6" d="M94.32 10.473h2.34c2.61 0 5.03-1.783 5.449-4.358A5.241 5.241 0 0 0 96.94 0h-62.6c-2.61 0-5.03 1.782-5.448 4.357a5.241 5.241 0 0 0 5.168 6.116h2.62c0 5.482-2.841 10.508-7.408 13.545C11.63 35.743 0 55.785 0 78.545c0 23.683 12.587 44.426 31.44 55.918v4.3A5.238 5.238 0 0 0 36.68 144h57.64a5.238 5.238 0 0 0 5.24-5.236v-4.301C118.413 122.97 131 102.228 131 78.545c0-22.76-11.63-42.802-29.272-54.527-4.567-3.037-7.408-8.063-7.408-13.545z"/>
        <path fill="#D0D8E0" d="M123.095 62.961a72.866 72.866 0 0 1-.713 11.59c-4.442 31.383-29.702 56.471-61.299 60.889-11.673 1.632-22.873.431-33.083-2.93a65.74 65.74 0 0 0 3.035 1.972v4.293c0 2.886 2.355 5.225 5.261 5.225h57.875c2.906 0 5.261-2.34 5.261-5.225v-4.293c18.93-11.468 31.568-32.167 31.568-55.8 0-5.723-.745-11.27-2.142-16.556-.87-3.291-5.827-2.566-5.763.835z"/>
        <path fill="#4C9BD5" d="M17.626 53C13.4 60.769 11 69.669 11 79.129 11 109.433 35.624 134 66 134s55-24.567 55-54.871c0-9.46-2.4-18.36-6.626-26.129H17.626z"/>
        <path fill="#1470B7" d="M120 84c-6.916 22.994-25.529 41.226-49 48 25.76-2.728 46.211-22.762 49-48z"/>
        <circle cx="38" cy="79" r="1" fill="#E2E4E6"/>
        <circle cx="42.5" cy="73.5" r="2.5" fill="#E2E4E6"/>
        <circle cx="35" cy="64" r="4" fill="#E2E4E6"/>
        <path fill="#D0D8E0" d="M96.786 10H34.214C31.334 10 29 7.762 29 5h73c0 2.762-2.334 5-5.214 5z"/>
        <path fill="#73AE43" d="M68.5 131c-1.38 0-2.5-1.151-2.5-2.571V115.57c0-1.42 1.12-2.571 2.5-2.571s2.5 1.151 2.5 2.571v12.858c0 1.42-1.12 2.571-2.5 2.571z"/>
        <path fill="#73AE43" d="M65.5 131c-1.38 0-2.5-1.164-2.5-2.6v-7.8c0-1.436 1.12-2.6 2.5-2.6s2.5 1.164 2.5 2.6v7.8c0 1.436-1.12 2.6-2.5 2.6zM70.5 131c-1.38 0-2.5-1.164-2.5-2.6v-7.8c0-1.436 1.12-2.6 2.5-2.6s2.5 1.164 2.5 2.6v7.8c0 1.436-1.12 2.6-2.5 2.6z"/>
        <path fill="#7D4B22" d="M81.17 128.674a6.178 6.178 0 0 0-1.418-.174c-1.67 0-3.176.681-4.329 1.77-.914-2.632-3.288-4.52-6.1-4.52-1.669 0-3.175.681-4.328 1.77-.914-2.632-3.288-4.52-6.1-4.52s-5.185 1.888-6.1 4.52c-1.153-1.089-2.66-1.77-4.328-1.77-2.296 0-4.306 1.26-5.467 3.151 6.847 3.25 14.418 5.099 22.413 5.099 10.073 0 19.48-2.92 27.587-7.925-1.168-1.852-3.16-3.075-5.427-3.075-3.21 0-5.863 2.452-6.403 5.674z"/>
    </g>
</svg>
