<svg xmlns="http://www.w3.org/2000/svg" width="275" height="159" viewBox="0 0 275 159">
    <defs>
        <linearGradient id="a" x1="50%" x2="50%" y1="0%" y2="100%">
            <stop offset="46.751%" stop-color="#E2E4E6"/>
            <stop offset="49.113%" stop-color="#D0D8E0"/>
        </linearGradient>
    </defs>
    <g fill="none" fill-rule="evenodd">
        <path fill="#4C9BD5" d="M27 38h224v100H27z"/>
        <path fill="#73AE43" fill-rule="nonzero" d="M225.5 135c-1.38 0-2.5-1.151-2.5-2.571V119.57c0-1.42 1.12-2.571 2.5-2.571s2.5 1.151 2.5 2.571v12.858c0 1.42-1.12 2.571-2.5 2.571z"/>
        <path fill="#73AE43" fill-rule="nonzero" d="M222.5 135c-1.38 0-2.5-1.164-2.5-2.6v-7.8c0-1.436 1.12-2.6 2.5-2.6s2.5 1.164 2.5 2.6v7.8c0 1.436-1.12 2.6-2.5 2.6z"/>
        <path fill="#7D4B22" fill-rule="nonzero" d="M238.17 132.674a6.178 6.178 0 0 0-1.418-.174c-1.67 0-3.176.681-4.329 1.77-.914-2.632-3.288-4.52-6.1-4.52-1.669 0-3.175.681-4.328 1.77-.914-2.632-3.288-4.52-6.1-4.52s-5.185 1.888-6.1 4.52c-1.153-1.089-2.66-1.77-4.328-1.77-2.296 0-4.306 1.26-5.467 3.151 6.847 3.25 14.418 5.099 22.413 5.099 10.073 0 19.48-2.92 27.587-7.925-1.168-1.852-3.16-3.075-5.427-3.075-3.21 0-5.863 2.452-6.403 5.674z"/>
        <g fill-rule="nonzero" transform="translate(47 54)">
            <g fill="#75D8B4">
                <path d="M73.099 89.935h-5.53c-2.325 0-4.493-1.159-6.103-3.264-1.545-2.019-2.396-4.688-2.396-7.515V46.625c0-.571.468-1.034 1.044-1.034.576 0 1.044.463 1.044 1.034v32.53c0 4.804 2.876 8.711 6.412 8.711h5.529c.576 0 1.043.463 1.043 1.035 0 .57-.467 1.034-1.043 1.034z"/>
                <path d="M71.442 89.935c-2.73 0-4.952-2.755-4.952-6.143V40.11c0-.57.467-1.034 1.044-1.034.576 0 1.043.463 1.043 1.034v43.684c0 2.208 1.312 4.074 2.865 4.074.576 0 1.043.463 1.043 1.034 0 .57-.467 1.034-1.043 1.034zM66.127 89.935h-1.376c-3.435 0-6.645-1.724-9.04-4.853-2.33-3.045-3.612-7.077-3.612-11.354v-18.77c0-.57.467-1.033 1.044-1.033.576 0 1.043.463 1.043 1.034v18.769c0 7.796 4.74 14.139 10.565 14.139h1.376c.576 0 1.044.463 1.044 1.034 0 .57-.467 1.034-1.044 1.034z"/>
                <path d="M74.368 89.935H68.84a1.039 1.039 0 0 1-1.044-1.034c0-.571.467-1.034 1.044-1.034h5.528c3.536 0 6.413-3.908 6.413-8.71V46.624c0-.571.467-1.034 1.043-1.034.576 0 1.044.463 1.044 1.034v32.53c0 2.828-.851 5.497-2.396 7.516-1.61 2.105-3.778 3.264-6.104 3.264z"/>
                <path d="M70.496 89.935a1.039 1.039 0 0 1-1.043-1.034c0-.571.467-1.034 1.043-1.034 1.553 0 2.865-1.866 2.865-4.074V40.109c0-.57.468-1.034 1.044-1.034.576 0 1.043.463 1.043 1.034v43.684c0 3.387-2.221 6.142-4.952 6.142zM77.187 89.935H75.81a1.039 1.039 0 0 1-1.044-1.034c0-.571.468-1.034 1.044-1.034h1.376c5.826 0 10.565-6.343 10.565-14.139v-18.77c0-.57.467-1.033 1.044-1.033.576 0 1.043.463 1.043 1.034v18.769c0 4.277-1.283 8.31-3.612 11.354-2.395 3.13-5.605 4.853-9.04 4.853z"/>
            </g>
            <path fill="#9BC9CC" d="M45 36.563c-5.684 0-10.42 4.013-11.478 9.332-.894-1.887-1.633-3.95-1.633-7.561 0-4.308 1.05-6.415 2.164-8.645 1.185-2.375 2.41-4.83 2.41-9.689H34.08c0 4.308-1.051 6.415-2.164 8.645-.53 1.063-1.07 2.143-1.502 3.447-1.171-5.172-5.835-9.038-11.414-9.038 0 6.093 4.757 11.084 10.795 11.542a22.37 22.37 0 0 0-.29 3.738c0 4.858 1.226 7.314 2.411 9.688 1.113 2.23 2.164 4.337 2.164 8.645 0 2.046-.239 3.592-.607 4.894-.9-5.51-5.726-9.72-11.548-9.72 0 6.128 4.811 11.141 10.899 11.55a34.628 34.628 0 0 1-.908 1.92c-1.185 2.375-2.41 4.83-2.41 9.689h2.383c0-4.308 1.051-6.414 2.164-8.644 1.185-2.375 2.41-4.83 2.41-9.69 0-4.122-.882-6.514-1.873-8.595C40.444 47.435 45 42.527 45 36.563z"/>
            <path fill="#E8BF4D" d="M83 90c0-16.016-13.208-29-29.5-29S24 73.984 24 90"/>
            <path fill="#F9D25B" d="M42 90c0-11.598-9.402-21-21-21S0 78.402 0 90"/>
            <path fill="#F74B4B" d="M17.964 61h-.928C14.807 61 13 62.708 13 64.815V89h9V64.815C22 62.708 20.193 61 17.964 61z"/>
            <circle cx="17.5" cy="65.5" r="2.5" fill="#7F3030"/>
            <path fill="#F74B4B" d="M7.964 68h-.928C4.807 68 3 69.69 3 71.774V89h9V71.774C12 69.69 10.193 68 7.964 68z"/>
            <circle cx="7.5" cy="72.5" r="2.5" fill="#7F3030"/>
            <path fill="#F74B4B" d="M51.964 68h-.928C48.807 68 47 69.69 47 71.774V89h9V71.774C56 69.69 54.193 68 51.964 68z"/>
            <circle cx="52.5" cy="72.5" r="2.5" fill="#7F3030"/>
            <path fill="#51CAF4" d="M6.5 48A4.505 4.505 0 0 1 2 43.5C2 41.019 4.019 39 6.5 39s4.5 2.019 4.5 4.5S8.981 48 6.5 48zm0-7.152A2.655 2.655 0 0 0 3.848 43.5 2.655 2.655 0 0 0 6.5 46.152 2.655 2.655 0 0 0 9.152 43.5 2.655 2.655 0 0 0 6.5 40.848zM61 16c-1.654 0-3-1.346-3-3s1.346-3 3-3 3 1.346 3 3-1.346 3-3 3zm0-3.956a.957.957 0 0 0 0 1.912.957.957 0 0 0 0-1.912zM57.5 7C55.57 7 54 5.43 54 3.5S55.57 0 57.5 0 61 1.57 61 3.5 59.43 7 57.5 7zm0-5.2c-.937 0-1.7.763-1.7 1.7 0 .937.763 1.7 1.7 1.7.937 0 1.7-.763 1.7-1.7 0-.937-.763-1.7-1.7-1.7zM46 58c-3.309 0-6-2.691-6-6s2.691-6 6-6c3.308 0 6 2.691 6 6s-2.692 6-6 6zm0-9.974A3.979 3.979 0 0 0 42.026 52 3.979 3.979 0 0 0 46 55.974 3.979 3.979 0 0 0 49.974 52 3.979 3.979 0 0 0 46 48.026zM8.5 37A6.507 6.507 0 0 1 2 30.5C2 26.916 4.916 24 8.5 24s6.5 2.916 6.5 6.5S12.084 37 8.5 37zm0-11.099a4.604 4.604 0 0 0-4.599 4.6 4.604 4.604 0 0 0 4.6 4.598 4.604 4.604 0 0 0 4.598-4.599A4.604 4.604 0 0 0 8.5 25.901z"/>
            <g transform="translate(52 20)">
                <path fill="#F9993A" d="M29.975 5.968c-2.137 3.419-5.498 5.354-9.022 5.808-4.606.596-9.491-1.342-12.285-5.808C11.134 2.025 15.228.055 19.323.055c.545 0 1.089.035 1.63.105 3.524.454 6.885 2.389 9.022 5.808z"/>
                <path fill="#F9D43A" d="M29.975 5.968c-2.137 3.419-5.498 5.354-9.022 5.808a10.718 10.718 0 0 1-1.695-5.808c0-2.14.621-4.135 1.695-5.808 3.524.454 6.885 2.389 9.022 5.808z"/>
                <ellipse cx="23.535" cy="5.859" fill="#4D4D4D" rx="1.845" ry="1.851"/>
                <path fill="#F9993A" d="M.806.16a12.654 12.654 0 0 0-.62-.063v11.742c.207-.017.414-.036.62-.063 3.524-.454 6.885-2.39 9.022-5.808C7.691 2.549 4.33.614.806.16z"/>
            </g>
        </g>
        <rect width="230" height="132" x="24" y="9" stroke="#E2E4E6" stroke-width="16" rx="8"/>
        <rect width="185" height="15" x="49" y="144" fill="#D0D8E0" rx="7.5"/>
        <rect width="275" height="17" fill="url(#a)" rx="8"/>
    </g>
</svg>
