<svg xmlns="http://www.w3.org/2000/svg" width="77" height="49" viewBox="0 0 77 49">
    <g fill="none" fill-rule="nonzero" transform="scale(-1 1) rotate(20 6.453 -199.863)">
        <path fill="#FCCF63" d="M27.492 9.083c-10.156.813-19.21 5.54-26.936 14.07a2.124 2.124 0 0 0 0 2.867c8.541 9.43 18.682 14.212 30.137 14.212 2.243 0 4.302-.067 6.229-.204a3.594 3.594 0 0 1 2.552.819c3.984 3.342 7.302 4.972 10.101 4.972.824 0 1.588-.407 2.016-1.073.43-.666.458-1.495.081-2.189-.667-1.223-.882-3.163-.624-5.54 2.713-1.109 5.138-2.519 7.324-4.249.942-.746 2.319-.672 3.186.15 3.259 3.093 6.925 5.173 10.479 7.034a2.467 2.467 0 0 0 2.555-.166c.743-.526 1.095-1.419.89-2.274-.64-2.732-2.303-10.379-2.303-12.926 0-2.547 1.663-10.194 2.304-12.926.038-.16.056-.323.056-.484 0-.695-.343-1.362-.947-1.79a2.47 2.47 0 0 0-2.555-.166c-3.557 1.863-7.225 3.944-10.485 7.04-.866.822-2.24.898-3.183.154-3.04-2.403-6.552-4.195-10.627-5.411-.697-2.658-.927-5.766.284-7.568.462-.686.492-1.559.077-2.275C47.69.445 46.897 0 46.035 0c-5.123 0-11.542 4.243-16.486 8.276a3.712 3.712 0 0 1-2.057.807z"/>
        <ellipse cx="11.145" cy="22.91" fill="#566E7F" rx="1.238" ry="1.858"/>
        <path fill="#F6B74E" d="M19.814 36.667a40.527 40.527 0 0 0 10.888 1.461c2.243 0 4.301-.062 6.228-.19.929-.06 1.853.218 2.55.765 3.984 3.118 7.302 4.64 10.1 4.64.824 0 1.588-.38 2.016-1.002.43-.622.457-1.395.081-2.042-.667-1.142-.882-2.952-.624-5.17 2.713-1.035 5.137-2.35 7.322-3.965.942-.696 2.319-.628 3.186.14 3.258 2.886 6.923 4.827 10.476 6.564a2.616 2.616 0 0 0 2.555-.155c.743-.49 1.095-1.324.89-2.123-.64-2.549-2.303-9.684-2.303-12.061H24.801c0 4.936-1.869 9.475-4.987 13.138zM46.558 7.897c-5.043-1.379-18.784.72-19.314.872.468-.019.935-.043 1.408-.043 6.206 0 12.621.77 18.406 2.42-.183-.891-.422-2.339-.5-3.249z"/>
    </g>
</svg>
