<svg width="468" height="413" xmlns="http://www.w3.org/2000/svg"><g fill="none" fill-rule="evenodd"><path d="M116.382 377.735c.986 1.401 1.479 2.984 1.479 4.749v.7a11.8 11.8 0 0 1-.312 1.791c-.934 3.84-4.203 6.435-9.808 7.785-3.166.778-8.123 1.193-14.87 1.245-2.127.052-3.554.104-4.28.156-10.64.778-23.044 3.036-37.212 6.773-5.501 1.453-9.757 2.543-12.767 3.27-.934.207-2.724.726-5.371 1.556-7.785 2.388-13.727 3.581-17.827 3.581-.571 0-1.09-.026-1.557-.078-7.733-.674-11.6-5.553-11.6-14.635v-.156c0-3.736-.363-9.834-1.09-18.294C.442 368.498.053 363.048 0 359.83v-7.629a782.8 782.8 0 0 1 .934-38.145c.052-.623.078-1.583.078-2.88 0-1.35-.026-3.01-.078-4.982v-2.18c0-8.46.286-15.907.856-22.342 1.298-14.74 4.074-24.055 8.33-27.947 1.972-1.817 4.204-2.725 6.695-2.725.363 0 .7.026 1.012.078.363 0 .727.052 1.09.156 3.685.31 6.461 1.79 8.33 4.437 1.453 2.076 2.18 5.267 2.18 9.575 0 1.194-.053 2.465-.156 3.815-.416 4.41-1.454 9.756-3.114 16.036-.779 3.062-1.272 5.138-1.48 6.228-.674 3.737-1.219 7.992-1.634 12.767-.623 7.11-.934 15.362-.934 24.755 0 9.394.311 19.929.934 31.606.467 8.46.804 14.869 1.012 19.228 4.515-.622 9.757-1.22 15.725-1.79 8.615-.83 16.919-2.128 24.911-3.892 8.563-1.973 17.1-2.959 25.612-2.959 3.27 0 6.513.156 9.73.467 8.46.779 13.91 2.855 16.349 6.228zm36.484-5.605c3.322 0 6.047-1.167 8.174-3.503 1.973-2.128 3.114-4.775 3.426-7.94.052-.52.078-1.038.078-1.557 0-2.491-.623-4.697-1.869-6.617-1.66-2.595-4.1-4.1-7.317-4.515a9.443 9.443 0 0 0-1.168-.078c-2.076 0-3.685.856-4.827 2.569-1.193 1.764-1.79 4.203-1.79 7.317 0 6.955 1.764 11.73 5.293 14.324zm48.68-6.461c3.79-2.803 6.644-4.204 8.564-4.204s2.88 1.453 2.88 4.36c-1.245 8.77-6.15 17.982-14.713 27.635-8.355 9.342-16.84 15.518-25.456 18.528a43.647 43.647 0 0 1-9.264 1.012c-15.206 0-29.218-8.615-42.037-25.845-4.36-5.865-6.54-13.909-6.54-24.133 0-4.307.39-9.03 1.169-14.168 1.4-9.238 8.77-15.336 22.108-18.294a24.052 24.052 0 0 1 5.372-.623c4.826 0 9.341 1.557 13.545 4.67 4.775 3.53 8.849 8.798 12.222 15.804.882 3.166 1.323 6.124 1.323 8.874 0 8.148-3.814 14.714-11.443 19.696-1.246.83-2.906 1.609-4.982 2.335-2.336.83-3.737 1.35-4.204 1.557-1.09.571-1.635 1.298-1.635 2.18v.156c.104 1.09 1.012 2.569 2.725 4.437 3.633 3.944 7.81 5.916 12.533 5.916 1.35 0 2.75-.155 4.204-.467 6.072-1.35 12.144-5.605 18.216-12.767 8.148-9.497 13.286-15.05 15.414-16.66zm91.306 37.289v.622c-.363 5.761-3.088 8.642-8.174 8.642-5.76 0-11.444-2.492-17.049-7.474-5.138-5.968-9.134-16.763-11.988-32.384-.467-2.491-.727-3.919-.779-4.282-1.245 2.336-3.27 7.136-6.072 14.402-3.788 9.86-6.772 16.737-8.952 20.63-3.737 6.59-7.422 9.886-11.054 9.886-3.789 0-7.007-1.453-9.653-4.36-3.945-4.359-5.917-9.808-5.917-16.347 0-1.038.052-2.102.156-3.192.623-6.85.934-17.204.934-31.061.052-4.879.078-8.745.078-11.6.207-15.05 1.012-29.062 2.413-42.037 2.647-23.977 6.747-35.965 12.3-35.965.986 0 1.946.337 2.88 1.012 3.737 1.712 5.657 7.55 5.761 17.515v.545c0 6.85-.934 17.256-2.802 31.217-.675 5.138-1.038 8.382-1.09 9.731-.623 10.432-.934 19.955-.934 28.57 0 3.84.051 7.473.155 10.898 2.958-3.01 5.813-8.615 8.563-16.815 1.92-5.916 3.685-10.172 5.294-12.766 2.647-4.412 6.28-7.578 10.899-9.498 1.038-.467 2.05-.7 3.036-.7 4.515 0 8.174 4.359 10.976 13.078 2.024 6.331 3.815 15.855 5.372 28.57l.467 3.736c3.529 13.857 8.433 23.536 14.713 29.037l.467.39zm33.942-30.828c3.321 0 6.046-1.167 8.174-3.503 1.972-2.128 3.114-4.775 3.425-7.94.052-.52.078-1.038.078-1.557 0-2.491-.623-4.697-1.868-6.617-1.661-2.595-4.1-4.1-7.318-4.515a9.443 9.443 0 0 0-1.168-.078c-2.076 0-3.685.856-4.826 2.569-1.194 1.764-1.79 4.203-1.79 7.317 0 6.955 1.764 11.73 5.293 14.324zm53.995-6.461c3.788-2.803 6.643-4.204 8.563-4.204 1.92 0 2.88 1.453 2.88 4.36-1.245 8.77-6.15 17.982-14.713 27.635-8.356 9.342-16.84 15.518-25.456 18.528a43.647 43.647 0 0 1-9.264 1.012c-15.206 0-29.218-8.615-42.037-25.845-4.36-5.865-6.54-13.909-6.54-24.133 0-4.307.39-9.03 1.168-14.168 1.401-9.238 8.77-15.336 22.109-18.294a24.052 24.052 0 0 1 5.371-.623c4.827 0 9.342 1.557 13.546 4.67 4.774 3.53 8.848 8.798 12.222 15.804.882 3.166 1.323 6.124 1.323 8.874 0 8.148-3.814 14.714-11.443 19.696-1.246.83-2.907 1.609-4.983 2.335-2.335.83-3.736 1.35-4.203 1.557-1.09.571-1.635 1.298-1.635 2.18v.156c.104 1.09 1.012 2.569 2.724 4.437 3.633 3.944 7.811 5.916 12.534 5.916 1.35 0 2.75-.155 4.204-.467 6.072-1.35 12.144-5.605 18.216-12.767 8.148-9.497 13.286-15.05 15.414-16.66zm73.721-38.067c2.907 0 5.865 1.115 8.875 3.347 2.699 2.024 4.048 4.178 4.048 6.461 0 .571-.104 1.168-.311 1.79-10.691 5.45-19.618 12.898-26.78 22.343-7.888 10.328-13.338 22.394-16.348 36.199-2.18 10.12-5.32 15.18-9.42 15.18-1.764 0-3.71-.96-5.838-2.88-5.241-4.775-9.341-13.987-12.3-27.636-2.387-10.899-3.58-21.512-3.58-31.84.986-4.203 2.568-7.084 4.748-8.64 1.038-.675 2.102-1.012 3.192-1.012 1.194 0 2.387.363 3.58 1.09 5.71 3.528 8.98 11.754 9.81 24.677 2.127-7.837 7.032-16.01 14.713-24.522 8.77-9.705 17.256-14.557 25.456-14.557h.155z" fill="#FFF"/><path d="M272.114.54H150.377C141.885.54 135 7.478 135 16.033v122.642c0 8.554 6.885 15.49 15.377 15.49h27.553v33.566l33.314-33.565h60.87c8.492 0 15.377-6.937 15.377-15.491V16.032c0-8.555-6.885-15.491-15.377-15.491" fill="#ACD433"/><path d="M311.146 33.54h-131.53C170.44 33.54 163 41.035 163 50.279v132.51c0 9.24 7.44 16.736 16.616 16.736h65.765l35.571 20.976.428-20.976h29.766c9.176 0 16.616-7.495 16.616-16.737V50.278c0-9.244-7.44-16.737-16.616-16.737" fill="#FFF"/><path d="M278.445 136.305c.495.703.742 1.497.742 2.382v.352a5.92 5.92 0 0 1-.156.899c-.469 1.927-2.11 3.229-4.922 3.906-1.588.39-4.075.599-7.46.625a56.677 56.677 0 0 0-2.15.078c-5.338.39-11.562 1.523-18.671 3.398-2.76.73-4.896 1.276-6.406 1.64-.469.105-1.367.366-2.696.782-3.906 1.198-6.888 1.797-8.945 1.797-.286 0-.547-.013-.781-.039-3.88-.339-5.82-2.786-5.82-7.344v-.078c0-1.875-.183-4.935-.547-9.18-.365-3.854-.56-6.588-.586-8.203v-3.828c0-6.354.156-12.734.468-19.14.027-.313.04-.795.04-1.446 0-.677-.013-1.51-.04-2.5v-1.094c0-4.244.144-7.981.43-11.21.651-7.396 2.044-12.07 4.18-14.024.99-.911 2.11-1.367 3.36-1.367.182 0 .35.013.507.039.182 0 .365.026.547.078 1.849.156 3.242.899 4.18 2.227.729 1.041 1.093 2.643 1.093 4.804 0 .6-.026 1.237-.078 1.914-.208 2.214-.729 4.896-1.562 8.047-.39 1.537-.638 2.578-.742 3.125-.339 1.875-.612 4.01-.82 6.407-.313 3.567-.47 7.708-.47 12.421 0 4.714.157 10 .47 15.86.234 4.245.403 7.46.507 9.648a193.12 193.12 0 0 1 7.89-.898c4.324-.417 8.49-1.068 12.5-1.953a57.103 57.103 0 0 1 12.852-1.485c1.64 0 3.268.078 4.883.235 4.245.39 6.98 1.432 8.203 3.125z" fill="#3495AF"/></g></svg>