<svg xmlns="http://www.w3.org/2000/svg" width="38" height="38" viewBox="0 0 38 38">
    <g fill="#FFF" fill-rule="nonzero">
        <path d="M26.647 18.327l-10.393-7.19c-.323-.242-1.185-.242-1.254.668v14.383c.077.91.954.926 1.254.669l10.393-7.191c.269-.164.638-.833 0-1.339zm-10.04 6.327V13.34l8.163 5.658-8.162 5.657z"/>
        <path d="M19 0C8.523 0 0 8.523 0 19s8.523 19 19 19 19-8.523 19-19S29.477 0 19 0zm0 36.38C9.415 36.38 1.62 28.584 1.62 19 1.62 9.415 9.416 1.62 19 1.62c9.585 0 17.38 7.795 17.38 17.38 0 9.585-7.795 17.38-17.38 17.38z"/>
    </g>
</svg>
